<svg width="30" height="30" viewBox="0 0 30 30" fill="none" xmlns="http://www.w3.org/2000/svg">
<mask id="mask0_1661_13280" style="mask-type:luminance" maskUnits="userSpaceOnUse" x="2" y="3" width="26" height="24">
<path d="M28 3H2V27H28V3Z" fill="white"/>
</mask>
<g mask="url(#mask0_1661_13280)">
<path d="M17.8576 6.50682L17.8575 6.50662C16.6246 4.35939 13.5268 4.35939 12.2939 6.50662L12.2938 6.50682L4.24665 20.5301C4.24664 20.5301 4.24663 20.5301 4.24662 20.5301C3.01921 22.6688 4.56427 25.3333 7.0285 25.3333H23.1229C25.5883 25.3333 27.1321 22.6685 25.9048 20.5301L17.8576 6.50682Z" fill="#C4C4C4" stroke="#8B8D8E" stroke-width="2"/>
<path d="M8.46197 20.3415C8.76457 20.3415 9.00988 20.0962 9.00988 19.7936C9.00988 19.491 8.76457 19.2457 8.46197 19.2457C8.15937 19.2457 7.91406 19.491 7.91406 19.7936C7.91406 20.0962 8.15937 20.3415 8.46197 20.3415Z" fill="white"/>
<path d="M12.6885 13.5318C12.9911 13.5318 13.2364 13.2865 13.2364 12.9839C13.2364 12.6813 12.9911 12.436 12.6885 12.436C12.3859 12.436 12.1406 12.6813 12.1406 12.9839C12.1406 13.2865 12.3859 13.5318 12.6885 13.5318Z" fill="white"/>
<path d="M13.628 10.0095C13.9306 10.0095 14.1759 9.76419 14.1759 9.46159C14.1759 9.15899 13.9306 8.91368 13.628 8.91368C13.3254 8.91368 13.0801 9.15899 13.0801 9.46159C13.0801 9.76419 13.3254 10.0095 13.628 10.0095Z" fill="white"/>
<path d="M22.5508 22.6114C22.8534 22.6114 23.0987 22.3661 23.0987 22.0635C23.0987 21.7609 22.8534 21.5156 22.5508 21.5156C22.2482 21.5156 22.0029 21.7609 22.0029 22.0635C22.0029 22.3661 22.2482 22.6114 22.5508 22.6114Z" fill="white"/>
</g>
</svg>
